PathFileType  4	(X/Y/Z) C:\Users\wagnerel85475\Documents\Thesis\opencap-core\Data\3375ffbc-daeb-4a43-b4f7-ac9899cd4c71\MarkerData\PreAugmentation
DataRate	CameraRate	NumFrames	NumMarkers	Units	OrigDataRate	OrigDataStartFrame	OrigNumFrames
60.0	60.0	18	20	m	60.0	76	301
Frame#	Time	Neck			RShoulder			RElbow			RWrist			LShoulder			LElbow			LWrist			midHip			RHip			RKnee			RAnkle			LHip			LKnee			LAnkle			LBigToe			LSmallToe			LHeel			RBigToe			RSmallToe			RHeel			
		X1	Y1	Z1	X2	Y2	Z2	X3	Y3	Z3	X4	Y4	Z4	X5	Y5	Z5	X6	Y6	Z6	X7	Y7	Z7	X8	Y8	Z8	X9	Y9	Z9	X10	Y10	Z10	X11	Y11	Z11	X12	Y12	Z12	X13	Y13	Z13	X14	Y14	Z14	X15	Y15	Z15	X16	Y16	Z16	X17	Y17	Z17	X18	Y18	Z18	X19	Y19	Z19	X20	Y20	Z20	

76	1.2500000	0.8040200	0.6909600	-0.1779500	0.8130200	0.6944300	0.0003200	0.8469900	0.4264900	0.1722900	1.0488700	0.1909600	0.1547600	0.8314400	0.6907100	-0.3488500	0.8448900	0.3763300	-0.4524400	1.0399800	0.1310900	-0.4329500	0.3880400	0.3782000	-0.1653700	0.3869800	0.3763700	-0.0493300	0.8280300	0.3046200	-0.0551100	0.6688700	-0.1890500	-0.0134800	0.3898000	0.3808900	-0.2856700	0.8113000	0.3151700	-0.3070000	0.6785100	-0.1989600	-0.3215800	0.8956300	-0.2209600	-0.3483100	0.8452900	-0.2165700	-0.3911400	0.6027600	-0.2425800	-0.3222300	0.8891400	-0.2224900	0.0318500	0.8323100	-0.2191900	0.0631200	0.6272000	-0.2279300	-0.0251700
77	1.2666667	0.8206400	0.6966500	-0.1780600	0.8221800	0.6945200	0.0028700	0.8558000	0.4287600	0.1750700	1.0551900	0.1966800	0.1502400	0.8412200	0.6958400	-0.3446400	0.8466700	0.3727200	-0.4527200	1.0538500	0.1358000	-0.4252500	0.3998600	0.3893300	-0.1605900	0.3955600	0.3885000	-0.0443500	0.8372800	0.3064800	-0.0512400	0.6690900	-0.1892200	-0.0132600	0.4104000	0.3971800	-0.2849600	0.8126300	0.3133500	-0.3074500	0.6788300	-0.2021300	-0.3223200	0.8945600	-0.2243200	-0.3492800	0.8383100	-0.2228200	-0.3958600	0.6118300	-0.2401400	-0.3182200	0.8804900	-0.2245100	0.0299600	0.8325600	-0.2192900	0.0629300	0.6273500	-0.2282200	-0.0250900
78	1.2833333	0.8297600	0.7058900	-0.1741400	0.8325200	0.7130700	-0.0013400	0.8639200	0.4368300	0.1709700	1.0502600	0.1934700	0.1530700	0.8486100	0.7051900	-0.3406600	0.8520500	0.3919400	-0.4479100	1.0393900	0.1334700	-0.4187500	0.3879900	0.3981700	-0.1573500	0.3774600	0.3899400	-0.0364900	0.8372700	0.3065000	-0.0515500	0.6669700	-0.1887200	-0.0119700	0.4078000	0.4082400	-0.2779700	0.8100400	0.3221100	-0.3058700	0.6790800	-0.2026500	-0.3222800	0.8950100	-0.2275800	-0.3495300	0.8379800	-0.2257200	-0.3961600	0.6028000	-0.2429200	-0.3223100	0.8891300	-0.2253200	0.0324900	0.8322400	-0.2192000	0.0631300	0.6181800	-0.2315800	-0.0207000
79	1.3000000	0.8302400	0.7094300	-0.1741600	0.8315600	0.7130800	-0.0016200	0.8628700	0.4412100	0.1711300	1.0558900	0.1963300	0.1490700	0.8506300	0.7090900	-0.3404000	0.8531700	0.3988200	-0.4476200	1.0308400	0.1386600	-0.4227100	0.4002900	0.4162100	-0.1533000	0.3765800	0.4024800	-0.0360400	0.8468700	0.3049000	-0.0479500	0.6679700	-0.1928000	-0.0124000	0.4087600	0.4228800	-0.2775500	0.8121100	0.3168600	-0.3068400	0.6789900	-0.2024200	-0.3223400	0.8944200	-0.2243300	-0.3492200	0.8462100	-0.2200000	-0.3920700	0.6027300	-0.2433700	-0.3221400	0.8891600	-0.2223900	0.0318100	0.8254200	-0.2259100	0.0664100	0.6184900	-0.2318200	-0.0207200
80	1.3166667	0.8383200	0.7144100	-0.1709900	0.8332300	0.7206400	-0.0013600	0.8573900	0.4524000	0.1750500	1.0489400	0.2037900	0.1536800	0.8569600	0.7135400	-0.3444400	0.8439200	0.4153900	-0.4456900	1.0245300	0.1450300	-0.4199300	0.4093500	0.4257500	-0.1587500	0.3895700	0.4150100	-0.0421900	0.8552900	0.3040000	-0.0445100	0.6676500	-0.1914900	-0.0037000	0.4179200	0.4325900	-0.2829700	0.8188200	0.3210000	-0.3090800	0.6792700	-0.1985900	-0.3229300	0.8871000	-0.2305000	-0.3533500	0.8374800	-0.2230600	-0.3956900	0.6028600	-0.2428000	-0.3221900	0.8894300	-0.2253100	0.0325000	0.8412600	-0.2226100	0.0660900	0.6173800	-0.2338900	-0.0197600
81	1.3333333	0.8475900	0.7331500	-0.1677500	0.8405600	0.7317400	-0.0061500	0.8654900	0.4619900	0.1780400	1.0393800	0.2125800	0.1517700	0.8667200	0.7336500	-0.3403800	0.8446000	0.4229600	-0.4522700	1.0163700	0.1588200	-0.4179400	0.4212200	0.4361900	-0.1540000	0.4098900	0.4242700	-0.0427600	0.8645500	0.3095200	-0.0401800	0.6683000	-0.1883300	-0.0041000	0.4295700	0.4390300	-0.2776300	0.8233000	0.3021000	-0.3120400	0.6794700	-0.1989600	-0.3230600	0.8863100	-0.2306900	-0.3536700	0.8386100	-0.2263700	-0.3965700	0.6027700	-0.2463700	-0.3227400	0.8891400	-0.2222800	0.0318000	0.8341800	-0.2225300	0.0693900	0.6180200	-0.2318000	-0.0203800
82	1.3500000	0.8549300	0.7481900	-0.1714400	0.8496900	0.7370300	-0.0024200	0.8467900	0.4722700	0.1724800	1.0324800	0.2176700	0.1568100	0.8742500	0.7548900	-0.3440000	0.8437700	0.4311100	-0.4533500	1.0087000	0.1645600	-0.4215200	0.4288500	0.4535200	-0.1585500	0.4178100	0.4460700	-0.0468500	0.8652800	0.3099300	-0.0331700	0.6674600	-0.1946000	-0.0029300	0.4281800	0.4588000	-0.2784900	0.8244300	0.2961300	-0.3126600	0.6788000	-0.1953000	-0.3222800	0.8869800	-0.2305500	-0.3533700	0.8299500	-0.2293000	-0.4001300	0.6118400	-0.2326000	-0.3183500	0.8894300	-0.2223700	0.0319000	0.8413600	-0.2223900	0.0660800	0.6175300	-0.2339100	-0.0197300
83	1.3666667	0.8636300	0.7565600	-0.1675100	0.8512400	0.7536300	-0.0032800	0.8570500	0.4789900	0.1829300	1.0191000	0.2252000	0.1634600	0.8721200	0.7537600	-0.3449800	0.8350500	0.4417600	-0.4490800	0.9903500	0.1761700	-0.4281000	0.4402400	0.4731000	-0.1616500	0.4352400	0.4603900	-0.0629800	0.8656300	0.3097700	-0.0325400	0.6578500	-0.1980400	-0.0060600	0.4393500	0.4814300	-0.2814100	0.8236100	0.3011300	-0.3121400	0.6783600	-0.1988300	-0.3217500	0.8860200	-0.2307700	-0.3536800	0.8212900	-0.2291600	-0.3964000	0.6116200	-0.2369200	-0.3175800	0.8978300	-0.2190900	0.0348000	0.8419300	-0.2194100	0.0652800	0.6175200	-0.2342300	-0.0197500
84	1.3833333	0.8725000	0.7731600	-0.1637800	0.8582400	0.7772300	-0.0067100	0.8577200	0.4895700	0.1830000	1.0127600	0.2337600	0.1672800	0.8812300	0.7722400	-0.3404700	0.8332200	0.4630800	-0.4486800	0.9755500	0.1842700	-0.4287900	0.4293200	0.4841800	-0.1594300	0.4274900	0.4712100	-0.0514800	0.8652500	0.3099400	-0.0328500	0.6575600	-0.1980000	-0.0062700	0.4276900	0.4895600	-0.2793000	0.8190500	0.3172900	-0.3098300	0.6786000	-0.1991400	-0.3215900	0.8789100	-0.2368600	-0.3577200	0.8212100	-0.2324500	-0.3967200	0.6120600	-0.2369200	-0.3177500	0.8979800	-0.2221800	0.0356400	0.8413400	-0.2224200	0.0662000	0.6170600	-0.2341700	-0.0197600
85	1.4000000	0.8724800	0.7867300	-0.1643400	0.8564100	0.7918300	-0.0066000	0.8571400	0.5149600	0.1827400	1.0029800	0.2541400	0.1729400	0.8806300	0.7767700	-0.3407500	0.8341700	0.4807600	-0.4498600	0.9687600	0.2006900	-0.4346000	0.4523300	0.4921000	-0.1594300	0.4695200	0.4835200	-0.0446800	0.8666200	0.3062000	-0.0253900	0.6583800	-0.1984000	-0.0074200	0.4396100	0.4920600	-0.2822200	0.8225800	0.3058100	-0.3117100	0.6787800	-0.1992900	-0.3217500	0.8860500	-0.2342700	-0.3543700	0.8306300	-0.2298300	-0.4005100	0.6121900	-0.2375600	-0.3254400	0.8983300	-0.2255400	0.0350100	0.8342400	-0.2252700	0.0702200	0.6177800	-0.2388000	-0.0205200
86	1.4166667	0.8722600	0.8011500	-0.1646400	0.8573900	0.7957700	-0.0062500	0.8378400	0.5290500	0.1774100	0.9954500	0.2738700	0.1699300	0.8778900	0.8084600	-0.3416300	0.8314500	0.4986700	-0.4491900	0.9582600	0.2176900	-0.4365900	0.4615700	0.5012400	-0.1564000	0.4929300	0.5015700	-0.0469800	0.8662400	0.3062500	-0.0257800	0.6582400	-0.1981600	-0.0076100	0.4597300	0.5030500	-0.2756200	0.8227400	0.3019600	-0.3122000	0.6789000	-0.1994600	-0.3216600	0.8869800	-0.2305500	-0.3533200	0.8302400	-0.2296700	-0.4001300	0.6035600	-0.2405500	-0.3294600	0.8982700	-0.2220400	0.0357400	0.8340100	-0.2220400	0.0697900	0.6178500	-0.2357100	-0.0211300
87	1.4333333	0.8717100	0.8186300	-0.1638400	0.8447800	0.8114800	-0.0009700	0.8382800	0.5435400	0.1766600	0.9875600	0.2838800	0.1738300	0.8783300	0.8161900	-0.3416800	0.8166900	0.5207300	-0.4508500	0.9569100	0.2311700	-0.4370400	0.4854800	0.5125800	-0.1651600	0.5023500	0.5168600	-0.0513200	0.8581800	0.3077900	-0.0205100	0.6679500	-0.1876800	-0.0041600	0.4954100	0.5202700	-0.2635800	0.8209900	0.3123000	-0.3108000	0.6788700	-0.1988200	-0.3216900	0.8861900	-0.2306500	-0.3536700	0.8302700	-0.2262500	-0.3998800	0.6120900	-0.2372500	-0.3253700	0.8980600	-0.2190100	0.0349500	0.8344000	-0.2221700	0.0695800	0.6175600	-0.2316400	-0.0205800
88	1.4500000	0.8714000	0.8370800	-0.1643500	0.8627200	0.8345500	-0.0017500	0.8386400	0.5761100	0.1767400	0.9779500	0.2919000	0.1717300	0.8767000	0.8378600	-0.3422600	0.8229700	0.5373800	-0.4471300	0.9504500	0.2574400	-0.4420000	0.4711800	0.5419400	-0.1608600	0.4997900	0.5351300	-0.0506500	0.8499300	0.3060600	-0.0167600	0.6579900	-0.1908300	-0.0075600	0.4897800	0.5398500	-0.2632800	0.8189500	0.3244400	-0.3099400	0.6789300	-0.1921400	-0.3216800	0.8870800	-0.2303200	-0.3532600	0.8297900	-0.2261300	-0.3995200	0.6126300	-0.2368500	-0.3255800	0.8904500	-0.2220800	0.0392900	0.8335500	-0.2185800	0.0705500	0.6174300	-0.2314000	-0.0205900
89	1.4666667	0.8718100	0.8547900	-0.1645700	0.8626900	0.8519700	-0.0023500	0.8195700	0.5876400	0.1785100	0.9516900	0.3129500	0.1705700	0.8771000	0.8565200	-0.3424300	0.8139400	0.5598800	-0.4501800	0.9163800	0.2699400	-0.4577100	0.4937000	0.5576200	-0.1608100	0.5123400	0.5550900	-0.0477800	0.8502400	0.3088800	-0.0166500	0.6576100	-0.1941500	-0.0053700	0.5124400	0.5544900	-0.2546500	0.8196800	0.3264800	-0.3090800	0.6867100	-0.1744100	-0.3156100	0.8862400	-0.2269800	-0.3530200	0.8296100	-0.2196600	-0.3986900	0.6119500	-0.2303500	-0.3241000	0.8899600	-0.2181900	0.0397200	0.8337800	-0.2187000	0.0703400	0.6171800	-0.2341500	-0.0198600
90	1.4833333	0.8712200	0.8693700	-0.1646100	0.8623500	0.8782100	-0.0015600	0.8242600	0.6117500	0.1769900	0.9234600	0.3218300	0.1877500	0.8844000	0.8642400	-0.3461600	0.8125100	0.5747800	-0.4504700	0.8940000	0.2804500	-0.4629800	0.4840700	0.5595200	-0.1493900	0.5043000	0.5606100	-0.0438000	0.8334800	0.3060800	-0.0077200	0.6574900	-0.1939500	-0.0054800	0.5097300	0.5657300	-0.2550500	0.8187200	0.3317200	-0.3091700	0.6785500	-0.1733700	-0.3187500	0.8873600	-0.2231500	-0.3520500	0.8291100	-0.2196600	-0.3982700	0.6034200	-0.2330800	-0.3282300	0.8817200	-0.2184400	0.0361900	0.8335700	-0.2156500	0.0698900	0.6169600	-0.2339000	-0.0198400
91	1.5000000	0.8711300	0.9046100	-0.1646700	0.8794200	0.9063200	-0.0034700	0.8205700	0.6355300	0.1778900	0.9059300	0.3366100	0.1890700	0.8847300	0.9008800	-0.3464000	0.8145500	0.5966900	-0.4515600	0.8926600	0.3062000	-0.4641100	0.4752900	0.5663500	-0.1441300	0.5037700	0.5657700	-0.0434600	0.8340700	0.3120000	-0.0079900	0.6572600	-0.1906000	-0.0059600	0.5131000	0.5733100	-0.2546600	0.8198100	0.3257800	-0.3100100	0.6780300	-0.1771300	-0.3194500	0.8862600	-0.2270000	-0.3530000	0.8377000	-0.2167800	-0.3947800	0.6028900	-0.2335500	-0.3281000	0.8814900	-0.2183200	0.0359900	0.8262600	-0.2186800	0.0738400	0.6170600	-0.2340600	-0.0199000
92	1.5166667	0.8797300	0.9161900	-0.1615900	0.8805400	0.9214800	-0.0032500	0.8036900	0.6582700	0.1714000	0.8883300	0.3633500	0.1915400	0.8833800	0.9177400	-0.3463700	0.8029600	0.6272500	-0.4475700	0.8761800	0.3180400	-0.4642000	0.4618100	0.5845600	-0.1484200	0.4921900	0.5871300	-0.0387600	0.8425000	0.3142500	-0.0052300	0.6571800	-0.1832300	-0.0061400	0.5080300	0.5930600	-0.2547400	0.8186600	0.3280000	-0.3095700	0.6779900	-0.1774300	-0.3194100	0.8947800	-0.2240000	-0.3489100	0.8373500	-0.2198600	-0.3949400	0.6029700	-0.2333400	-0.3283900	0.8820500	-0.2154100	0.0354400	0.8337500	-0.2153400	0.0698200	0.6168700	-0.2295400	-0.0193400
93	1.5333333	0.8783200	0.9554500	-0.1610600	0.8703900	0.9564100	0.0009700	0.8036500	0.6793100	0.1711500	0.8791800	0.3840400	0.1962600	0.8763800	0.9394000	-0.3431700	0.8049300	0.6461200	-0.4484100	0.8554300	0.3611000	-0.4574400	0.4861600	0.6047300	-0.1403800	0.5037000	0.6044000	-0.0351200	0.8349700	0.3121900	-0.0006900	0.6572500	-0.1832800	-0.0059700	0.5139500	0.6011000	-0.2551700	0.8110400	0.3237500	-0.3140000	0.6780000	-0.1773300	-0.3194700	0.8938500	-0.2243400	-0.3492100	0.8378100	-0.2198800	-0.3952600	0.6027000	-0.2336600	-0.3281600	0.8822800	-0.2189100	0.0346100	0.8339800	-0.2154200	0.0696400	0.6169500	-0.2270800	-0.0199400
